<?xml version="1.0" encoding="UTF-8" standalone="no"?>
<svg
   version="1.1"
   viewBox="0.0 0.0 1073.706036745407 100.0"
   fill="none"
   stroke="none"
   stroke-linecap="square"
   stroke-miterlimit="10"
   id="svg209"
   sodipodi:docname="the-journey-of-a-job-configuration-part1.svg"
   inkscape:version="1.1.1 (c3084ef, 2021-09-22)"
   xmlns:inkscape="http://www.inkscape.org/namespaces/inkscape"
   xmlns:sodipodi="http://sodipodi.sourceforge.net/DTD/sodipodi-0.dtd"
   xmlns="http://www.w3.org/2000/svg"
   xmlns:svg="http://www.w3.org/2000/svg">
  <defs
     id="defs213" />
  <sodipodi:namedview
     id="namedview211"
     pagecolor="#ffffff"
     bordercolor="#666666"
     borderopacity="1.0"
     inkscape:pageshadow="2"
     inkscape:pageopacity="0.0"
     inkscape:pagecheckerboard="0"
     showgrid="false"
     showguides="true"
     inkscape:guide-bbox="true"
     inkscape:zoom="0.71808822"
     inkscape:cx="411.50933"
     inkscape:cy="34.118371"
     inkscape:window-width="1680"
     inkscape:window-height="925"
     inkscape:window-x="0"
     inkscape:window-y="25"
     inkscape:window-maximized="0"
     inkscape:current-layer="g207">
    <sodipodi:guide
       position="46.443516,58.319921"
       orientation="0,-1"
       id="guide11361" />
  </sodipodi:namedview>
  <clipPath
     id="p.0">
    <path
       d="m0 0l1073.706 0l0 100.0l-1073.706 0l0 -100.0z"
       clip-rule="nonzero"
       id="path128" />
  </clipPath>
  <g
     clip-path="url(#p.0)"
     id="g207">
    <path
       fill="#000000"
       fill-opacity="0.0"
       d="m0 0l1073.706 0l0 100.0l-1073.706 0z"
       fill-rule="evenodd"
       id="path131" />
    <path
       fill="#0b5394"
       d="m455.78217 0.031496063l406.2362 0l0 84.78741l-406.2362 0z"
       fill-rule="evenodd"
       id="path133" />
    <text
       xml:space="preserve"
       style="font-style:normal;font-weight:normal;font-size:17.3333px;line-height:1.25;font-family:sans-serif;fill:#ffffff;fill-opacity:1;stroke:none"
       x="597.45514"
       y="21.939539"
       id="text2364-5-1"><tspan
         sodipodi:role="line"
         id="tspan2362-5-6"
         x="597.45514"
         y="21.939539"
         style="font-style:normal;font-variant:normal;font-weight:normal;font-stretch:normal;font-size:17.3333px;font-family:Verdana;-inkscape-font-specification:Verdana">transforms</tspan></text>
    <path
       fill="#0b5394"
       d="m227.8937 0l173.6063 0l0 84.7874l-173.6063 0z"
       fill-rule="evenodd"
       id="path137" />
    <path
       fill="#3d85c6"
       d="m467.25955 31.876984l102.77164 0l0 50.204727l-102.77164 0z"
       fill-rule="evenodd"
       id="path141" />
    <path
       fill="#3d85c6"
       d="m593.51886 31.876984l102.77167 0l0 50.204727l-102.77167 0z"
       fill-rule="evenodd"
       id="path145" />
    <text
       xml:space="preserve"
       style="font-style:normal;font-weight:normal;font-size:13.3333px;line-height:1.25;font-family:sans-serif;fill:#ffffff;fill-opacity:1;stroke:none"
       x="603.1355"
       y="60.557049"
       id="text2364-5-8-5"><tspan
         sodipodi:role="line"
         id="tspan2362-5-4-8"
         x="603.1355"
         y="60.557049"
         style="font-style:normal;font-variant:normal;font-weight:normal;font-stretch:normal;font-size:13.3333px;font-family:Verdana;-inkscape-font-specification:Verdana">transform_2</tspan></text>
    <path
       fill="#3d85c6"
       d="m746.7732 31.876984l102.77167 0l0 50.204727l-102.77167 0z"
       fill-rule="evenodd"
       id="path149" />
    <path
       fill="#0b5394"
       d="m0.007874016 0l173.6063 0l0 66.70988l-18.077515 18.077522l-155.52878 0z"
       fill-rule="evenodd"
       id="path153" />
    <path
       fill="#084276"
       d="m155.53665 84.7874l3.615509 -14.462013l14.462006 -3.615509z"
       fill-rule="evenodd"
       id="path155" />
    <path
       fill="#000000"
       fill-opacity="0.0"
       d="m155.53665 84.7874l3.615509 -14.462013l14.462006 -3.615509l-18.077515 18.077522l-155.52878 0l0 -84.7874l173.6063 0l0 66.70988"
       fill-rule="evenodd"
       id="path157" />
    <path
       fill="#000000"
       fill-opacity="0.0"
       d="m173.61417 42.3937l27.139832 0l0 0.062992096l27.1279 0"
       fill-rule="evenodd"
       id="path161" />
    <path
       stroke="#000000"
       stroke-width="1.0"
       stroke-linejoin="round"
       stroke-linecap="butt"
       d="m173.61417 42.3937l27.139832 0l0 0.062992096l21.1279 0"
       fill-rule="evenodd"
       id="path163" />
    <path
       fill="#000000"
       stroke="#000000"
       stroke-width="1.0"
       stroke-linecap="butt"
       d="m221.8819 44.108425l4.538086 -1.6517334l-4.538086 -1.6517296z"
       fill-rule="evenodd"
       id="path165" />
    <path
       fill="#000000"
       fill-opacity="0.0"
       d="m401.5 42.3937l27.1409 0l0 0.062992096l27.126831 0"
       fill-rule="evenodd"
       id="path167" />
    <path
       stroke="#000000"
       stroke-width="1.0"
       stroke-linejoin="round"
       stroke-linecap="butt"
       d="m401.5 42.3937l27.1409 0l0 0.062992096l21.126831 0"
       fill-rule="evenodd"
       id="path169" />
    <path
       fill="#000000"
       stroke="#000000"
       stroke-width="1.0"
       stroke-linecap="butt"
       d="m449.76773 44.108425l4.538086 -1.6517334l-4.538086 -1.6517296z"
       fill-rule="evenodd"
       id="path171" />
    <path
       fill="#000000"
       fill-opacity="0.0"
       d="m570.0228 56.916355l11.748047 0l0 0.062992096l11.747986 0"
       fill-rule="evenodd"
       id="path173" />
    <path
       stroke="#ffffff"
       stroke-width="1.0"
       stroke-linejoin="round"
       stroke-linecap="butt"
       d="m570.0228 56.916355l11.747986 0l0 0.062992096l5.748047 0"
       fill-rule="evenodd"
       id="path175" />
    <path
       fill="#ffffff"
       stroke="#ffffff"
       stroke-width="1.0"
       stroke-linecap="butt"
       d="m587.51886 58.631077l4.538086 -1.6517296l-4.538086 -1.6517334z"
       fill-rule="evenodd"
       id="path177" />
    <path
       fill="#000000"
       fill-opacity="0.0"
       d="m701.0351 37.323177l40.251953 0l0 27.118107l-40.251953 0z"
       fill-rule="evenodd"
       id="path179" />
    <path
       fill="#ffffff"
       d="m715.0736 57.80223l0 -1.875l1.875 0l0 1.875l-1.875 0zm5.1833496 0l0 -1.875l1.875 0l0 1.875l-1.875 0zm5.1832886 0l0 -1.875l1.875 0l0 1.875l-1.875 0z"
       fill-rule="nonzero"
       id="path181" />
    <path
       fill="#000000"
       fill-opacity="0.0"
       d="m696.2905 56.979347l7.984253 0l0 0.062992096l7.984253 0"
       fill-rule="evenodd"
       id="path183" />
    <path
       stroke="#ffffff"
       stroke-width="1.0"
       stroke-linejoin="round"
       stroke-linecap="butt"
       d="m696.2905 56.979347l7.984253 0l0 0.062992096l1.9842529 0"
       fill-rule="evenodd"
       id="path185" />
    <path
       fill="#ffffff"
       stroke="#ffffff"
       stroke-width="1.0"
       stroke-linecap="butt"
       d="m706.25903 58.69407l4.538086 -1.6517296l-4.538086 -1.6517334z"
       fill-rule="evenodd"
       id="path187" />
    <path
       fill="#000000"
       fill-opacity="0.0"
       d="m730.6247 56.93176l8.078735 0l0 0.062992096l8.078735 0"
       fill-rule="evenodd"
       id="path189" />
    <path
       stroke="#ffffff"
       stroke-width="1.0"
       stroke-linejoin="round"
       stroke-linecap="butt"
       d="m730.6247 56.93176l8.078735 0l0 0.062992096l2.0787354 0"
       fill-rule="evenodd"
       id="path191" />
    <path
       fill="#ffffff"
       stroke="#ffffff"
       stroke-width="1.0"
       stroke-linecap="butt"
       d="m740.78217 58.646484l4.538086 -1.6517334l-4.538086 -1.6517334z"
       fill-rule="evenodd"
       id="path193" />
    <path
       fill="#cfe2f3"
       d="m900.0289 42.3937l0 0c0 -22.682812 38.8631 -41.070866 86.80316 -41.070866l0 0c47.940063 0 86.8031 18.388054 86.8031 41.070866l0 0c0 22.682816 -38.863037 41.07087 -86.8031 41.07087l0 0c-47.940063 0 -86.80316 -18.388054 -86.80316 -41.07087z"
       fill-rule="evenodd"
       id="path195" />
    <path
       fill="#000000"
       fill-opacity="0.0"
       d="m862.0184 42.425198l19.005188 0l0 0.062992096l19.01056 0"
       fill-rule="evenodd"
       id="path201" />
    <path
       stroke="#000000"
       stroke-width="1.0"
       stroke-linejoin="round"
       stroke-linecap="butt"
       d="m862.0184 42.425198l19.005249 0l0 0.062992096l13.010498 0"
       fill-rule="evenodd"
       id="path203" />
    <path
       fill="#000000"
       stroke="#000000"
       stroke-width="1.0"
       stroke-linecap="butt"
       d="m894.0341 44.139923l4.538086 -1.6517334l-4.538086 -1.6517334z"
       fill-rule="evenodd"
       id="path205" />
    <text
       xml:space="preserve"
       style="font-style:normal;font-weight:normal;font-size:17.3333px;line-height:1.25;font-family:sans-serif;fill:#ffffff;fill-opacity:1;stroke:none"
       x="45.856995"
       y="46.429985"
       id="text2364"><tspan
         sodipodi:role="line"
         id="tspan2362"
         x="45.856995"
         y="46.429985"
         style="font-style:normal;font-variant:normal;font-weight:normal;font-stretch:normal;font-size:17.3333px;font-family:Verdana;-inkscape-font-specification:Verdana">stage.yml</tspan></text>
    <text
       xml:space="preserve"
       style="font-style:normal;font-weight:normal;font-size:17.3333px;line-height:1.25;font-family:sans-serif;fill:#ffffff;fill-opacity:1;stroke:none"
       x="288.90555"
       y="46.472736"
       id="text2364-5"><tspan
         sodipodi:role="line"
         id="tspan2362-5"
         x="288.90555"
         y="46.472736"
         style="font-style:normal;font-variant:normal;font-weight:normal;font-stretch:normal;font-size:17.3333px;font-family:Verdana;-inkscape-font-specification:Verdana">loader</tspan></text>
    <text
       xml:space="preserve"
       style="font-style:normal;font-weight:normal;font-size:40px;line-height:1.25;font-family:sans-serif;fill:#000000;fill-opacity:1;stroke:none"
       x="489.84018"
       y="63.115547"
       id="text13429"><tspan
         sodipodi:role="line"
         id="tspan13427" /></text>
    <text
       xml:space="preserve"
       style="font-style:normal;font-weight:normal;font-size:13.3333px;line-height:1.25;font-family:sans-serif;fill:#ffffff;fill-opacity:1;stroke:none"
       x="477.23926"
       y="60.443993"
       id="text2364-5-8"><tspan
         sodipodi:role="line"
         id="tspan2362-5-4"
         x="477.23926"
         y="60.443993"
         style="font-style:normal;font-variant:normal;font-weight:normal;font-stretch:normal;font-size:13.3333px;font-family:Verdana;-inkscape-font-specification:Verdana">transform_1</tspan></text>
    <text
       xml:space="preserve"
       style="font-style:normal;font-weight:normal;font-size:13.3333px;line-height:1.25;font-family:sans-serif;fill:#ffffff;fill-opacity:1;stroke:none"
       x="755.56549"
       y="60.160095"
       id="text2364-5-8-57"><tspan
         sodipodi:role="line"
         id="tspan2362-5-4-5"
         x="755.56549"
         y="60.160095"
         style="font-style:normal;font-variant:normal;font-weight:normal;font-stretch:normal;font-size:13.3333px;font-family:Verdana;-inkscape-font-specification:Verdana">transform_n</tspan></text>
    <text
       xml:space="preserve"
       style="font-style:normal;font-weight:normal;font-size:17.3333px;line-height:1.25;font-family:sans-serif;fill:#ffffff;fill-opacity:1;stroke:none"
       x="929.58105"
       y="47.439873"
       id="text2364-5-1-6"><tspan
         sodipodi:role="line"
         id="tspan2362-5-6-9"
         x="929.58105"
         y="47.439873"
         style="font-style:normal;font-variant:normal;font-weight:normal;font-stretch:normal;font-size:17.3333px;font-family:Verdana;-inkscape-font-specification:Verdana;fill:#000000">full job graph</tspan></text>
  </g>
</svg>
